# xmcd CD database file
#
# Track frame offsets:
#	150
#	18175
#	32575
#	44200
#	58375
#	69250
#	86650
#	101725
#	117700
#	136825
#	150100
#	166075
#	176875
#	190900
#	204850
#	220975
#
# Disc length: 3115 seconds
#
# Revision: 0
# Processed by: cddbd v1.5.2PL0 Copyright (c) Steve Scherf et al.
# Submitted via: CDex 1.70beta2
#
DISCID=de0c2910
DTITLE=Poriginal Quartet - Poriginal Quartet
DYEAR=1992
DGENRE=Jazz
TTITLE0=Sweet Georgia Brown
TTITLE1=Moten Swing
TTITLE2=The Old Spinning Wheel
TTITLE3=Memories Of You
TTITLE4=Some Of These Days
TTITLE5=Out Of Nowhere
TTITLE6=Topsy
TTITLE7=How High The Moon
TTITLE8=Poriginally Blues
TTITLE9=Have You Met Miss Jones
TTITLE10=Muistan Sua Elaine
TTITLE11=On A Slow Boat To China
TTITLE12=Lady Be Good
TTITLE13=Jag Har Bott Vid En Landsäg
TTITLE14=Blue Lester
TTITLE15=Woodside Jump
EXTD=YEAR: 1992
EXTT0=
EXTT1=
EXTT2=
EXTT3=
EXTT4=
EXTT5=
EXTT6=
EXTT7=
EXTT8=
EXTT9=
EXTT10=
EXTT11=
EXTT12=
EXTT13=
EXTT14=
EXTT15=
PLAYORDER=
